# xmcd
#
# Track frame offsets: 
#        150
#        18107
#        36082
#        53802
#        68713
#        86387
#        105195
#        122544
#        136041
#        152431
#        172431
#        182562
#        207750
#
# Disc length: 3257 seconds
#
# Revision: 0
# Processed by: cddbd v1.5.2PL0 Copyright (c) Steve Scherf et al.
# Submitted via: ExactAudioCopy v0.95b3
#
DISCID=980cb70d
DTITLE=Wentus blues band - Agriculture
DYEAR=2007
DGENRE=Blues
TTITLE0=Down the line
TTITLE1=Moonshine
TTITLE2=Take it away
TTITLE3=Biscuit roller
TTITLE4=Times getting hard
TTITLE5=Passenger blues (Devil is turning up the heat)
TTITLE6=Explorer boogie
TTITLE7=Country love
TTITLE8=Brand new mojo hand
TTITLE9=Here in the night
TTITLE10=Love Bug
TTITLE11=My kind of people
TTITLE12=mixed mode track
EXTD=
EXTT0=
EXTT1=
EXTT2=
EXTT3=
EXTT4=
EXTT5=
EXTT6=
EXTT7=
EXTT8=
EXTT9=
EXTT10=
EXTT11=
EXTT12=
PLAYORDER=
